<svg xmlns="http://www.w3.org/2000/svg" width="1024" height="1024" viewBox="0 0 1024 1024" shape-rendering="geometricPrecision">
  <rect width="1024" height="1024" fill="#0D0E0E"/>
  <path d="M 596 619 L 596 622 L 598 625 L 598 627 L 599 628 L 599 630 L 600 631 L 600 633 L 601 634 L 601 636 L 602 637 L 602 639 L 603 640 L 603 642 L 604 643 L 604 645 L 605 646 L 605 648 L 606 649 L 606 651 L 608 655 L 608 658 L 610 661 L 610 663 L 611 664 L 611 666 L 612 667 L 612 669 L 613 670 L 613 672 L 614 673 L 614 675 L 615 676 L 616 680 L 636 680 L 636 678 L 637 677 L 637 675 L 638 674 L 638 672 L 640 668 L 640 665 L 642 661 L 642 658 L 643 657 L 643 655 L 645 651 L 645 648 L 647 644 L 647 641 L 648 640 L 650 641 L 651 648 L 652 649 L 652 651 L 654 655 L 654 658 L 655 659 L 655 661 L 657 665 L 657 668 L 658 669 L 658 671 L 659 672 L 661 680 L 681 680 L 681 678 L 682 677 L 682 675 L 683 674 L 683 672 L 685 668 L 685 665 L 686 664 L 686 662 L 687 661 L 687 659 L 688 658 L 688 656 L 689 655 L 689 653 L 690 652 L 690 650 L 691 649 L 691 647 L 692 646 L 692 644 L 693 643 L 693 641 L 694 640 L 694 638 L 695 637 L 695 635 L 696 634 L 696 632 L 698 628 L 698 625 L 699 624 L 700 619 L 683 619 L 682 620 L 681 626 L 680 627 L 680 630 L 678 634 L 678 637 L 676 641 L 676 644 L 674 648 L 674 651 L 673 652 L 673 655 L 672 656 L 672 659 L 671 660 L 669 659 L 669 657 L 668 656 L 668 654 L 666 650 L 665 643 L 664 642 L 664 640 L 662 636 L 662 633 L 661 632 L 661 630 L 660 629 L 658 621 L 656 619 L 641 619 L 639 621 L 639 623 L 638 624 L 638 626 L 636 630 L 636 633 L 635 634 L 635 636 L 633 640 L 633 643 L 631 647 L 631 650 L 629 654 L 629 657 L 627 661 L 625 659 L 625 656 L 624 655 L 623 648 L 621 644 L 621 641 L 619 637 L 619 634 L 617 630 L 617 627 L 616 626 L 615 621 L 613 619 Z M 296 621 L 292 619 L 290 619 L 289 618 L 288 619 L 287 618 L 274 618 L 271 620 L 269 620 L 262 626 L 261 625 L 261 620 L 260 619 L 245 619 L 244 620 L 244 710 L 261 710 L 261 676 L 263 674 L 266 678 L 267 678 L 271 681 L 274 681 L 275 682 L 288 682 L 289 681 L 294 680 L 298 677 L 299 677 L 303 673 L 303 672 L 307 667 L 307 665 L 309 661 L 309 658 L 310 657 L 310 642 L 309 641 L 309 638 L 308 637 L 308 635 L 306 631 L 303 628 L 303 627 Z M 273 632 L 279 632 L 280 633 L 282 633 L 286 635 L 289 638 L 292 644 L 292 656 L 290 660 L 284 666 L 280 667 L 279 668 L 274 668 L 273 667 L 271 667 L 267 665 L 263 661 L 262 657 L 261 656 L 261 652 L 260 651 L 260 649 L 261 648 L 261 644 L 264 638 L 267 635 Z M 538 624 L 537 625 L 537 628 L 544 636 L 554 631 L 557 631 L 558 630 L 564 630 L 565 631 L 568 631 L 570 632 L 573 635 L 574 637 L 574 642 L 573 643 L 558 643 L 557 644 L 552 644 L 551 645 L 548 645 L 547 646 L 542 647 L 540 649 L 539 649 L 535 653 L 533 657 L 533 660 L 532 661 L 532 666 L 533 667 L 533 670 L 535 674 L 540 679 L 544 681 L 546 681 L 547 682 L 561 682 L 562 681 L 564 681 L 568 679 L 570 677 L 571 677 L 571 676 L 573 674 L 575 675 L 575 680 L 591 680 L 591 640 L 590 639 L 590 635 L 589 634 L 589 632 L 585 625 L 578 620 L 576 620 L 572 618 L 565 618 L 564 617 L 562 618 L 553 618 L 552 619 L 549 619 Z M 575 655 L 575 659 L 574 660 L 573 664 L 568 669 L 566 670 L 564 670 L 563 671 L 556 671 L 554 670 L 550 666 L 550 664 L 549 663 L 550 659 L 554 655 L 556 654 L 560 654 L 561 653 L 573 653 Z M 449 619 L 432 619 L 432 625 L 431 626 L 426 621 L 422 619 L 420 619 L 419 618 L 413 618 L 412 617 L 410 618 L 404 618 L 403 619 L 401 619 L 395 622 L 389 628 L 385 635 L 385 637 L 383 641 L 383 647 L 382 648 L 382 650 L 383 651 L 383 658 L 384 659 L 385 664 L 387 666 L 388 669 L 395 676 L 396 676 L 398 678 L 402 679 L 403 680 L 406 680 L 407 681 L 416 681 L 417 680 L 420 680 L 421 679 L 425 678 L 430 673 L 431 673 L 432 674 L 432 682 L 431 683 L 431 685 L 429 689 L 425 693 L 419 696 L 408 696 L 407 695 L 404 695 L 398 692 L 395 689 L 393 689 L 390 693 L 390 694 L 384 701 L 386 703 L 395 708 L 397 708 L 401 710 L 406 710 L 407 711 L 422 711 L 423 710 L 430 709 L 436 706 L 442 701 L 447 692 L 447 690 L 448 689 L 448 685 L 449 684 Z M 413 632 L 419 632 L 420 633 L 422 633 L 426 635 L 430 639 L 431 643 L 432 644 L 432 647 L 433 648 L 432 655 L 430 659 L 425 664 L 421 666 L 412 666 L 408 664 L 403 659 L 401 655 L 401 652 L 400 651 L 401 643 L 403 639 L 407 635 Z M 708 583 L 708 669 L 707 670 L 707 680 L 725 680 L 725 654 L 726 653 L 727 653 L 728 655 L 733 660 L 733 661 L 737 665 L 737 666 L 749 681 L 750 680 L 771 680 L 766 675 L 766 674 L 761 669 L 761 668 L 745 649 L 745 647 L 750 642 L 750 641 L 759 631 L 759 630 L 765 624 L 765 623 L 768 620 L 768 619 L 748 619 L 746 620 L 740 627 L 740 628 L 734 634 L 734 635 L 730 639 L 730 640 L 727 643 L 726 643 L 725 642 L 725 583 Z M 320 583 L 320 680 L 338 680 L 338 654 L 339 653 L 341 654 L 343 658 L 348 663 L 348 664 L 352 668 L 352 669 L 361 680 L 383 680 L 382 678 L 373 668 L 373 667 L 369 663 L 369 662 L 365 658 L 365 657 L 357 648 L 371 632 L 371 631 L 378 624 L 378 623 L 381 620 L 381 619 L 360 619 L 339 644 L 338 643 L 338 583 Z M 463 583 L 463 680 L 481 680 L 481 675 L 480 674 L 480 661 L 481 660 L 481 658 L 480 657 L 480 646 L 481 645 L 482 639 L 484 637 L 484 636 L 486 634 L 490 632 L 497 632 L 499 633 L 504 638 L 504 641 L 505 642 L 505 680 L 522 680 L 522 671 L 523 670 L 523 651 L 522 650 L 522 647 L 523 646 L 523 638 L 522 637 L 522 633 L 521 632 L 521 630 L 519 626 L 514 621 L 510 619 L 508 619 L 507 618 L 494 618 L 493 619 L 491 619 L 487 621 L 482 626 L 481 625 L 481 613 L 480 612 L 480 609 L 481 608 L 481 583 L 479 583 L 478 582 L 473 582 L 472 583 Z M 185 493 L 186 494 L 185 495 L 185 503 L 186 504 L 186 509 L 187 510 L 187 513 L 188 514 L 189 519 L 193 527 L 193 529 L 200 543 L 202 545 L 203 548 L 205 550 L 205 551 L 207 553 L 207 554 L 209 556 L 213 563 L 224 576 L 224 577 L 228 581 L 228 571 L 229 570 L 230 560 L 232 556 L 232 553 L 236 545 L 238 543 L 239 540 L 249 530 L 255 527 L 263 525 L 266 523 L 269 523 L 270 522 L 273 522 L 274 521 L 277 521 L 278 520 L 281 520 L 282 519 L 287 519 L 288 518 L 293 518 L 294 517 L 300 517 L 301 516 L 311 516 L 312 515 L 332 515 L 333 514 L 352 514 L 353 515 L 370 515 L 371 516 L 383 516 L 384 517 L 393 517 L 394 518 L 410 519 L 411 520 L 416 520 L 417 521 L 424 521 L 425 522 L 429 522 L 430 523 L 435 523 L 431 522 L 430 521 L 428 521 L 425 519 L 423 519 L 415 515 L 413 515 L 408 512 L 406 512 L 384 501 L 382 499 L 370 493 L 368 491 L 362 488 L 359 485 L 352 481 L 349 478 L 348 478 L 345 475 L 344 475 L 340 471 L 339 471 L 318 450 L 315 450 L 314 449 L 304 449 L 303 448 L 299 448 L 298 447 L 295 447 L 294 446 L 287 445 L 286 444 L 284 444 L 283 443 L 275 441 L 267 437 L 265 437 L 244 426 L 241 426 L 239 427 L 208 458 L 208 459 L 202 465 L 202 466 L 198 470 L 198 471 L 195 474 L 195 475 L 192 478 L 192 479 L 188 484 L 186 488 L 186 492 Z M 289 463 L 288 465 L 286 465 L 285 466 L 282 466 L 281 467 L 279 467 L 278 468 L 276 468 L 275 469 L 273 469 L 272 470 L 270 470 L 266 472 L 263 472 L 262 473 L 260 473 L 259 474 L 257 474 L 253 476 L 251 475 L 273 454 L 278 456 L 280 458 L 283 459 L 285 461 Z M 564 384 L 548 392 L 546 392 L 520 405 L 520 452 L 524 451 L 564 431 L 565 429 L 565 386 Z M 466 383 L 466 430 L 504 449 L 506 449 L 509 451 L 512 451 L 512 406 L 495 397 L 494 398 L 494 423 L 493 424 L 491 424 L 487 422 L 485 420 L 485 392 L 478 389 L 476 387 L 474 387 Z M 559 377 L 548 371 L 544 370 L 543 368 L 542 369 L 541 368 L 539 370 L 537 370 L 533 374 L 532 378 L 531 379 L 531 382 L 530 383 L 531 385 L 530 386 L 529 385 L 530 386 L 527 389 L 525 393 L 528 391 L 534 390 Z M 622 325 L 618 325 L 617 326 L 611 326 L 610 327 L 606 327 L 605 328 L 601 328 L 600 329 L 591 330 L 590 331 L 587 331 L 586 332 L 582 332 L 578 334 L 582 339 L 582 340 L 584 342 L 585 345 L 588 349 L 588 351 L 592 359 L 592 361 L 594 365 L 594 368 L 595 369 L 595 373 L 596 374 L 596 381 L 597 382 L 597 396 L 596 397 L 596 404 L 595 405 L 595 410 L 594 411 L 593 418 L 590 424 L 590 426 L 588 429 L 588 431 L 586 433 L 584 438 L 582 440 L 581 443 L 578 446 L 578 447 L 564 461 L 563 461 L 560 464 L 559 464 L 554 468 L 548 471 L 546 471 L 543 473 L 537 474 L 533 476 L 525 477 L 524 478 L 516 478 L 515 479 L 502 479 L 501 478 L 494 478 L 493 477 L 486 476 L 485 475 L 483 475 L 482 474 L 474 472 L 462 466 L 460 464 L 454 461 L 450 457 L 449 457 L 435 443 L 435 442 L 432 439 L 431 436 L 429 434 L 424 424 L 424 422 L 422 418 L 422 415 L 421 414 L 421 410 L 420 409 L 420 405 L 419 404 L 419 402 L 416 403 L 414 405 L 413 405 L 411 407 L 404 411 L 396 418 L 396 421 L 397 422 L 399 430 L 411 451 L 422 463 L 423 465 L 424 465 L 431 472 L 432 472 L 442 480 L 468 493 L 470 493 L 474 495 L 477 495 L 478 496 L 481 496 L 482 497 L 485 497 L 486 498 L 490 498 L 491 499 L 498 499 L 499 500 L 523 500 L 524 499 L 530 499 L 531 498 L 540 497 L 541 496 L 543 496 L 547 494 L 550 494 L 553 492 L 558 491 L 572 484 L 574 482 L 577 481 L 579 479 L 583 477 L 591 470 L 592 470 L 603 459 L 603 458 L 611 449 L 612 446 L 619 436 L 619 434 L 625 422 L 626 416 L 627 415 L 627 412 L 628 411 L 628 407 L 629 406 L 629 400 L 630 399 L 630 373 L 629 372 L 629 367 L 628 366 L 628 362 L 627 361 L 627 358 L 626 357 L 625 352 L 623 349 L 623 347 L 617 335 L 615 333 L 613 329 L 615 327 L 617 327 L 618 326 Z M 836 356 L 832 354 L 830 354 L 825 351 L 823 351 L 818 348 L 816 348 L 813 346 L 811 346 L 808 344 L 806 344 L 800 341 L 795 340 L 792 338 L 789 338 L 788 337 L 786 337 L 785 336 L 783 336 L 782 335 L 780 335 L 779 334 L 777 334 L 773 332 L 766 331 L 765 330 L 759 329 L 758 328 L 754 328 L 753 327 L 749 327 L 748 326 L 744 326 L 743 325 L 740 325 L 739 324 L 734 324 L 733 323 L 719 322 L 718 321 L 710 321 L 709 320 L 697 320 L 696 319 L 669 319 L 676 320 L 677 321 L 679 321 L 680 322 L 682 322 L 683 323 L 685 323 L 686 324 L 688 324 L 689 325 L 697 327 L 700 329 L 705 330 L 712 334 L 714 334 L 730 342 L 735 346 L 730 356 L 728 358 L 724 367 L 722 369 L 719 376 L 714 383 L 713 386 L 711 388 L 711 389 L 709 391 L 709 392 L 707 394 L 707 395 L 705 397 L 705 398 L 703 400 L 699 407 L 696 410 L 696 411 L 693 414 L 693 415 L 690 418 L 690 419 L 687 422 L 687 423 L 683 427 L 683 428 L 677 434 L 677 435 L 653 460 L 652 460 L 638 473 L 637 473 L 634 476 L 633 476 L 630 479 L 629 479 L 626 482 L 625 482 L 617 488 L 614 489 L 612 491 L 607 493 L 605 495 L 589 503 L 587 503 L 579 507 L 577 507 L 576 508 L 574 508 L 573 509 L 571 509 L 570 510 L 568 510 L 564 512 L 561 512 L 560 513 L 557 513 L 556 514 L 553 514 L 552 515 L 548 515 L 547 516 L 542 516 L 541 517 L 533 517 L 532 518 L 517 518 L 516 519 L 515 518 L 498 518 L 497 517 L 490 517 L 489 516 L 484 516 L 483 515 L 480 515 L 479 514 L 476 514 L 475 513 L 471 513 L 470 512 L 468 512 L 467 511 L 465 511 L 464 510 L 456 508 L 453 506 L 451 506 L 444 502 L 440 501 L 438 499 L 428 494 L 426 492 L 425 492 L 423 490 L 416 486 L 412 482 L 411 482 L 407 478 L 406 478 L 386 459 L 386 458 L 373 444 L 373 443 L 369 438 L 363 441 L 353 448 L 345 452 L 366 470 L 367 470 L 382 482 L 383 482 L 400 494 L 403 495 L 410 500 L 417 503 L 419 505 L 439 515 L 441 515 L 446 518 L 451 519 L 454 521 L 456 521 L 457 522 L 459 522 L 460 523 L 462 523 L 466 525 L 469 525 L 473 527 L 480 528 L 481 529 L 485 529 L 486 530 L 490 530 L 491 531 L 497 531 L 498 532 L 508 532 L 509 533 L 531 533 L 532 532 L 542 532 L 543 531 L 550 531 L 551 530 L 555 530 L 556 529 L 567 528 L 568 527 L 575 526 L 579 524 L 582 524 L 583 523 L 585 523 L 589 521 L 592 521 L 593 520 L 595 520 L 596 519 L 598 519 L 599 518 L 607 516 L 610 514 L 612 514 L 620 510 L 622 510 L 629 506 L 631 506 L 663 490 L 670 485 L 677 482 L 679 480 L 687 476 L 692 472 L 695 471 L 697 469 L 698 469 L 706 463 L 709 462 L 711 460 L 715 458 L 718 455 L 719 455 L 721 453 L 728 449 L 731 446 L 735 444 L 742 438 L 746 436 L 749 433 L 750 433 L 753 430 L 754 430 L 758 426 L 759 426 L 762 423 L 763 423 L 766 420 L 767 420 L 777 411 L 778 411 L 782 407 L 783 407 L 786 404 L 787 404 L 793 398 L 794 398 L 799 393 L 801 392 L 758 392 L 757 391 L 759 389 L 765 386 L 767 384 L 776 380 L 778 378 L 782 376 L 784 376 L 789 373 L 791 373 L 798 369 L 803 368 L 806 366 L 811 365 L 814 363 L 816 363 L 817 362 L 819 362 L 820 361 L 822 361 L 826 359 L 829 359 L 830 358 L 836 357 Z M 801 280 L 799 280 L 798 279 L 796 279 L 792 277 L 789 277 L 785 275 L 782 275 L 781 274 L 774 273 L 770 271 L 763 270 L 762 269 L 758 269 L 757 268 L 754 268 L 753 267 L 750 267 L 749 266 L 745 266 L 744 265 L 740 265 L 739 264 L 735 264 L 734 263 L 729 263 L 728 262 L 725 262 L 724 261 L 718 261 L 717 260 L 712 260 L 711 259 L 706 259 L 705 258 L 698 258 L 697 257 L 690 257 L 689 256 L 680 256 L 679 255 L 666 255 L 665 254 L 609 254 L 608 255 L 596 255 L 595 256 L 585 256 L 584 257 L 576 257 L 575 258 L 569 258 L 568 259 L 563 259 L 562 260 L 556 260 L 555 261 L 551 261 L 550 262 L 546 262 L 545 263 L 541 263 L 540 264 L 536 264 L 535 265 L 526 266 L 525 267 L 522 267 L 521 268 L 518 268 L 517 269 L 514 269 L 513 270 L 506 271 L 502 273 L 495 274 L 491 276 L 488 276 L 485 278 L 482 278 L 478 280 L 475 280 L 474 281 L 472 281 L 471 282 L 469 282 L 468 283 L 466 283 L 465 284 L 457 286 L 454 288 L 452 288 L 451 289 L 443 291 L 435 295 L 433 295 L 427 298 L 425 298 L 420 301 L 418 301 L 415 303 L 413 303 L 410 305 L 408 305 L 403 308 L 401 308 L 394 312 L 392 312 L 381 318 L 379 318 L 343 336 L 341 338 L 332 342 L 330 344 L 323 347 L 321 349 L 314 352 L 307 357 L 302 359 L 300 361 L 292 365 L 287 369 L 284 370 L 279 374 L 276 375 L 274 377 L 273 377 L 271 379 L 270 379 L 268 381 L 267 381 L 265 383 L 264 383 L 262 385 L 261 385 L 259 387 L 252 391 L 249 394 L 246 395 L 243 398 L 242 398 L 236 403 L 235 403 L 233 405 L 233 406 L 235 406 L 240 409 L 242 409 L 245 411 L 250 412 L 253 414 L 255 414 L 256 415 L 258 415 L 262 417 L 265 417 L 269 419 L 276 420 L 280 422 L 284 422 L 285 423 L 289 423 L 290 424 L 295 424 L 296 425 L 302 425 L 303 426 L 313 426 L 314 427 L 319 427 L 320 426 L 327 425 L 330 423 L 335 422 L 361 409 L 363 409 L 365 407 L 369 406 L 379 401 L 381 399 L 400 390 L 402 388 L 411 384 L 413 382 L 422 378 L 424 376 L 435 371 L 437 369 L 446 365 L 448 363 L 455 360 L 457 358 L 521 326 L 523 326 L 537 319 L 539 319 L 542 317 L 544 317 L 549 314 L 554 313 L 562 309 L 564 309 L 570 306 L 572 306 L 573 305 L 575 305 L 576 304 L 578 304 L 579 303 L 581 303 L 582 302 L 584 302 L 588 300 L 591 300 L 592 299 L 594 299 L 595 298 L 597 298 L 601 296 L 604 296 L 605 295 L 608 295 L 609 294 L 612 294 L 613 293 L 616 293 L 617 292 L 620 292 L 621 291 L 624 291 L 625 290 L 629 290 L 630 289 L 633 289 L 634 288 L 643 287 L 644 286 L 649 286 L 650 285 L 655 285 L 656 284 L 661 284 L 662 283 L 667 283 L 668 282 L 675 282 L 676 281 L 694 280 L 695 279 L 708 279 L 709 278 L 772 278 L 773 279 L 789 279 L 790 280 Z" fill="#F79D18" fill-rule="evenodd"/>
  <path d="M 526 376 L 501 388 L 508 385 L 510 387 L 510 389 L 511 389 L 513 387 L 514 387 L 515 385 L 517 383 L 518 383 L 518 382 L 523 377 Z M 528 365 L 527 365 L 521 360 L 522 358 L 515 355 L 519 357 L 518 358 L 516 358 L 512 356 L 487 369 L 485 369 L 471 376 L 489 385 L 511 374 L 512 372 L 518 369 L 519 370 L 523 368 L 525 366 Z" fill="#FCDC99" fill-rule="evenodd"/>
</svg>
